{
	"patcher" : 	{
		"fileversion" : 1,
		"rect" : [ 6.0, 50.0, 1018.0, 739.0 ],
		"bglocked" : 0,
		"defrect" : [ 6.0, 50.0, 1018.0, 739.0 ],
		"openrect" : [ 0.0, 0.0, 0.0, 0.0 ],
		"openinpresentation" : 0,
		"default_fontsize" : 12.0,
		"default_fontface" : 0,
		"default_fontname" : "Arial",
		"gridonopen" : 0,
		"gridsize" : [ 15.0, 15.0 ],
		"gridsnaponopen" : 0,
		"toolbarvisible" : 1,
		"boxanimatetime" : 200,
		"imprint" : 0,
		"enablehscroll" : 1,
		"enablevscroll" : 1,
		"devicewidth" : 0.0,
		"boxes" : [ 			{
				"box" : 				{
					"maxclass" : "comment",
					"text" : "Here are some new messages",
					"numoutlets" : 0,
					"fontname" : "Arial",
					"patching_rect" : [ 342.0, 98.0, 278.0, 27.0 ],
					"fontsize" : 18.0,
					"numinlets" : 1,
					"id" : "obj-39"
				}

			}
, 			{
				"box" : 				{
					"maxclass" : "flonum",
					"numoutlets" : 2,
					"fontname" : "Arial",
					"triscale" : 0.9,
					"patching_rect" : [ 375.0, 643.0, 71.0, 27.0 ],
					"bgcolor" : [ 0.866667, 0.866667, 0.866667, 1.0 ],
					"outlettype" : [ "float", "bang" ],
					"fontsize" : 18.0,
					"htextcolor" : [ 0.870588, 0.870588, 0.870588, 1.0 ],
					"numinlets" : 1,
					"id" : "obj-1"
				}

			}
, 			{
				"box" : 				{
					"maxclass" : "flonum",
					"numoutlets" : 2,
					"fontname" : "Arial",
					"triscale" : 0.9,
					"patching_rect" : [ 554.0, 504.0, 84.0, 27.0 ],
					"bgcolor" : [ 0.866667, 0.866667, 0.866667, 1.0 ],
					"outlettype" : [ "float", "bang" ],
					"fontsize" : 18.0,
					"htextcolor" : [ 0.870588, 0.870588, 0.870588, 1.0 ],
					"numinlets" : 1,
					"id" : "obj-2"
				}

			}
, 			{
				"box" : 				{
					"maxclass" : "number",
					"numoutlets" : 2,
					"fontname" : "Arial",
					"triscale" : 0.9,
					"patching_rect" : [ 734.0, 444.0, 82.0, 27.0 ],
					"bgcolor" : [ 0.866667, 0.866667, 0.866667, 1.0 ],
					"outlettype" : [ "int", "bang" ],
					"fontsize" : 18.0,
					"htextcolor" : [ 0.870588, 0.870588, 0.870588, 1.0 ],
					"numinlets" : 1,
					"id" : "obj-3"
				}

			}
, 			{
				"box" : 				{
					"maxclass" : "number",
					"numoutlets" : 2,
					"fontname" : "Arial",
					"triscale" : 0.9,
					"patching_rect" : [ 644.0, 474.0, 82.0, 27.0 ],
					"bgcolor" : [ 0.866667, 0.866667, 0.866667, 1.0 ],
					"outlettype" : [ "int", "bang" ],
					"fontsize" : 18.0,
					"htextcolor" : [ 0.870588, 0.870588, 0.870588, 1.0 ],
					"numinlets" : 1,
					"id" : "obj-4"
				}

			}
, 			{
				"box" : 				{
					"maxclass" : "number",
					"numoutlets" : 2,
					"fontname" : "Arial",
					"triscale" : 0.9,
					"patching_rect" : [ 465.0, 534.0, 82.0, 27.0 ],
					"bgcolor" : [ 0.866667, 0.866667, 0.866667, 1.0 ],
					"outlettype" : [ "int", "bang" ],
					"fontsize" : 18.0,
					"htextcolor" : [ 0.870588, 0.870588, 0.870588, 1.0 ],
					"numinlets" : 1,
					"id" : "obj-5"
				}

			}
, 			{
				"box" : 				{
					"maxclass" : "number",
					"numoutlets" : 2,
					"fontname" : "Arial",
					"triscale" : 0.9,
					"patching_rect" : [ 375.0, 568.0, 94.0, 27.0 ],
					"bgcolor" : [ 0.866667, 0.866667, 0.866667, 1.0 ],
					"outlettype" : [ "int", "bang" ],
					"fontsize" : 18.0,
					"htextcolor" : [ 0.870588, 0.870588, 0.870588, 1.0 ],
					"numinlets" : 1,
					"id" : "obj-6"
				}

			}
, 			{
				"box" : 				{
					"maxclass" : "newobj",
					"text" : "r done",
					"numoutlets" : 1,
					"fontname" : "Arial",
					"patching_rect" : [ 209.0, 94.0, 67.0, 27.0 ],
					"outlettype" : [ "" ],
					"fontsize" : 18.0,
					"numinlets" : 0,
					"id" : "obj-7"
				}

			}
, 			{
				"box" : 				{
					"maxclass" : "newobj",
					"text" : "s done",
					"numoutlets" : 0,
					"fontname" : "Arial",
					"patching_rect" : [ 822.0, 409.0, 70.0, 27.0 ],
					"fontsize" : 18.0,
					"numinlets" : 1,
					"id" : "obj-8"
				}

			}
, 			{
				"box" : 				{
					"maxclass" : "button",
					"numoutlets" : 1,
					"patching_rect" : [ 175.0, 110.0, 24.0, 24.0 ],
					"outlettype" : [ "bang" ],
					"numinlets" : 1,
					"id" : "obj-9"
				}

			}
, 			{
				"box" : 				{
					"maxclass" : "comment",
					"text" : "< QT units/timescale = the length of the movie",
					"numoutlets" : 0,
					"fontname" : "Arial",
					"patching_rect" : [ 449.0, 643.0, 448.0, 27.0 ],
					"fontsize" : 18.0,
					"numinlets" : 1,
					"id" : "obj-10"
				}

			}
, 			{
				"box" : 				{
					"maxclass" : "newobj",
					"text" : "/ 1.",
					"numoutlets" : 1,
					"fontname" : "Arial",
					"patching_rect" : [ 375.0, 606.0, 98.0, 27.0 ],
					"outlettype" : [ "float" ],
					"fontsize" : 18.0,
					"numinlets" : 2,
					"id" : "obj-11"
				}

			}
, 			{
				"box" : 				{
					"maxclass" : "comment",
					"text" : "At what point in the movie am I RIGHT NOW?",
					"numoutlets" : 0,
					"fontname" : "Arial",
					"patching_rect" : [ 378.0, 282.0, 480.0, 27.0 ],
					"fontsize" : 18.0,
					"numinlets" : 1,
					"id" : "obj-12"
				}

			}
, 			{
				"box" : 				{
					"maxclass" : "comment",
					"text" : "How many \"frames\" are in this movie?",
					"numoutlets" : 0,
					"fontname" : "Arial",
					"patching_rect" : [ 378.0, 247.0, 441.0, 27.0 ],
					"fontsize" : 18.0,
					"numinlets" : 1,
					"id" : "obj-13"
				}

			}
, 			{
				"box" : 				{
					"maxclass" : "comment",
					"text" : "What's the current movie's rate",
					"numoutlets" : 0,
					"fontname" : "Arial",
					"patching_rect" : [ 378.0, 212.0, 442.0, 27.0 ],
					"fontsize" : 18.0,
					"numinlets" : 1,
					"id" : "obj-14"
				}

			}
, 			{
				"box" : 				{
					"maxclass" : "comment",
					"text" : "What QuickTime \"timescale\" is this movie using?",
					"numoutlets" : 0,
					"fontname" : "Arial",
					"patching_rect" : [ 378.0, 177.0, 509.0, 27.0 ],
					"fontsize" : 18.0,
					"numinlets" : 1,
					"id" : "obj-15"
				}

			}
, 			{
				"box" : 				{
					"maxclass" : "comment",
					"text" : "How long is the movie (in QuickTime units, that is....)",
					"numoutlets" : 0,
					"fontname" : "Arial",
					"patching_rect" : [ 378.0, 142.0, 541.0, 27.0 ],
					"fontsize" : 18.0,
					"numinlets" : 1,
					"id" : "obj-16"
				}

			}
, 			{
				"box" : 				{
					"maxclass" : "comment",
					"text" : "The read and rate messages are used to load movies and to adjust their rate of playback.",
					"linecount" : 2,
					"numoutlets" : 0,
					"fontname" : "Arial",
					"patching_rect" : [ 450.0, 26.0, 483.0, 48.0 ],
					"fontsize" : 18.0,
					"numinlets" : 1,
					"id" : "obj-17"
				}

			}
, 			{
				"box" : 				{
					"maxclass" : "button",
					"numoutlets" : 1,
					"patching_rect" : [ 47.0, 20.0, 22.0, 22.0 ],
					"outlettype" : [ "bang" ],
					"numinlets" : 1,
					"id" : "obj-18"
				}

			}
, 			{
				"box" : 				{
					"maxclass" : "number",
					"numoutlets" : 2,
					"fontname" : "Arial",
					"triscale" : 0.9,
					"patching_rect" : [ 139.0, 19.0, 62.0, 27.0 ],
					"bgcolor" : [ 0.866667, 0.866667, 0.866667, 1.0 ],
					"outlettype" : [ "int", "bang" ],
					"triangle" : 0,
					"fontsize" : 18.0,
					"htextcolor" : [ 0.870588, 0.870588, 0.870588, 1.0 ],
					"numinlets" : 1,
					"id" : "obj-19"
				}

			}
, 			{
				"box" : 				{
					"maxclass" : "flonum",
					"numoutlets" : 2,
					"fontname" : "Arial",
					"triscale" : 0.9,
					"patching_rect" : [ 210.0, 20.0, 63.0, 27.0 ],
					"bgcolor" : [ 0.866667, 0.866667, 0.866667, 1.0 ],
					"outlettype" : [ "float", "bang" ],
					"triangle" : 0,
					"fontsize" : 18.0,
					"htextcolor" : [ 0.870588, 0.870588, 0.870588, 1.0 ],
					"numinlets" : 1,
					"id" : "obj-20"
				}

			}
, 			{
				"box" : 				{
					"maxclass" : "message",
					"text" : "rate $1",
					"numoutlets" : 1,
					"fontname" : "Arial",
					"patching_rect" : [ 210.0, 50.0, 122.0, 25.0 ],
					"outlettype" : [ "" ],
					"fontsize" : 18.0,
					"numinlets" : 2,
					"id" : "obj-21"
				}

			}
, 			{
				"box" : 				{
					"maxclass" : "toggle",
					"numoutlets" : 1,
					"patching_rect" : [ 76.0, 20.0, 22.0, 22.0 ],
					"outlettype" : [ "int" ],
					"numinlets" : 1,
					"id" : "obj-22"
				}

			}
, 			{
				"box" : 				{
					"maxclass" : "newobj",
					"text" : "metro 33",
					"numoutlets" : 1,
					"fontname" : "Arial",
					"patching_rect" : [ 76.0, 49.0, 82.0, 27.0 ],
					"outlettype" : [ "bang" ],
					"fontsize" : 18.0,
					"numinlets" : 2,
					"id" : "obj-23"
				}

			}
, 			{
				"box" : 				{
					"maxclass" : "message",
					"text" : "read",
					"numoutlets" : 1,
					"fontname" : "Arial",
					"patching_rect" : [ 339.0, 50.0, 97.0, 25.0 ],
					"outlettype" : [ "" ],
					"fontsize" : 18.0,
					"numinlets" : 2,
					"id" : "obj-24"
				}

			}
, 			{
				"box" : 				{
					"maxclass" : "newobj",
					"text" : "jit.qt.movie 360 240",
					"numoutlets" : 2,
					"fontname" : "Arial",
					"patching_rect" : [ 47.0, 326.0, 206.0, 27.0 ],
					"outlettype" : [ "jit_matrix", "" ],
					"fontsize" : 18.0,
					"numinlets" : 1,
					"id" : "obj-25"
				}

			}
, 			{
				"box" : 				{
					"maxclass" : "comment",
					"text" : "< # of frames in movie",
					"numoutlets" : 0,
					"fontname" : "Arial",
					"patching_rect" : [ 730.0, 475.0, 372.0, 27.0 ],
					"fontsize" : 18.0,
					"numinlets" : 1,
					"id" : "obj-26"
				}

			}
, 			{
				"box" : 				{
					"maxclass" : "comment",
					"text" : "< (1.0 default) the movie's rate",
					"numoutlets" : 0,
					"fontname" : "Arial",
					"patching_rect" : [ 639.0, 505.0, 373.0, 27.0 ],
					"fontsize" : 18.0,
					"numinlets" : 1,
					"id" : "obj-27"
				}

			}
, 			{
				"box" : 				{
					"maxclass" : "comment",
					"text" : "< (600 default) timescale for movie",
					"numoutlets" : 0,
					"fontname" : "Arial",
					"patching_rect" : [ 551.0, 535.0, 373.0, 27.0 ],
					"fontsize" : 18.0,
					"numinlets" : 1,
					"id" : "obj-28"
				}

			}
, 			{
				"box" : 				{
					"maxclass" : "comment",
					"text" : "< duration in QT Units",
					"numoutlets" : 0,
					"fontname" : "Arial",
					"patching_rect" : [ 477.0, 568.0, 341.0, 27.0 ],
					"fontsize" : 18.0,
					"numinlets" : 1,
					"id" : "obj-29"
				}

			}
, 			{
				"box" : 				{
					"maxclass" : "comment",
					"text" : "< in QT Units",
					"numoutlets" : 0,
					"fontname" : "Arial",
					"patching_rect" : [ 820.0, 445.0, 280.0, 27.0 ],
					"fontsize" : 18.0,
					"numinlets" : 1,
					"id" : "obj-30"
				}

			}
, 			{
				"box" : 				{
					"maxclass" : "message",
					"text" : "gettime",
					"numoutlets" : 1,
					"fontname" : "Arial",
					"patching_rect" : [ 222.0, 282.0, 142.0, 25.0 ],
					"outlettype" : [ "" ],
					"fontsize" : 18.0,
					"numinlets" : 2,
					"id" : "obj-31"
				}

			}
, 			{
				"box" : 				{
					"maxclass" : "message",
					"text" : "getframecount",
					"numoutlets" : 1,
					"fontname" : "Arial",
					"patching_rect" : [ 222.0, 247.0, 142.0, 25.0 ],
					"outlettype" : [ "" ],
					"fontsize" : 18.0,
					"numinlets" : 2,
					"id" : "obj-32"
				}

			}
, 			{
				"box" : 				{
					"maxclass" : "message",
					"text" : "getrate",
					"numoutlets" : 1,
					"fontname" : "Arial",
					"patching_rect" : [ 222.0, 212.0, 140.0, 25.0 ],
					"outlettype" : [ "" ],
					"fontsize" : 18.0,
					"numinlets" : 2,
					"id" : "obj-33"
				}

			}
, 			{
				"box" : 				{
					"maxclass" : "message",
					"text" : "getduration",
					"numoutlets" : 1,
					"fontname" : "Arial",
					"patching_rect" : [ 222.0, 142.0, 148.0, 25.0 ],
					"outlettype" : [ "" ],
					"fontsize" : 18.0,
					"numinlets" : 2,
					"id" : "obj-34"
				}

			}
, 			{
				"box" : 				{
					"maxclass" : "message",
					"text" : "gettimescale",
					"numoutlets" : 1,
					"fontname" : "Arial",
					"patching_rect" : [ 222.0, 177.0, 150.0, 25.0 ],
					"outlettype" : [ "" ],
					"fontsize" : 18.0,
					"numinlets" : 2,
					"id" : "obj-35"
				}

			}
, 			{
				"box" : 				{
					"maxclass" : "newobj",
					"text" : "route duration timescale rate framecount time read",
					"numoutlets" : 7,
					"fontname" : "Arial",
					"patching_rect" : [ 375.0, 377.0, 557.0, 27.0 ],
					"outlettype" : [ "", "", "", "", "", "", "" ],
					"fontsize" : 18.0,
					"numinlets" : 1,
					"id" : "obj-36"
				}

			}
, 			{
				"box" : 				{
					"maxclass" : "jit.pwindow",
					"numoutlets" : 2,
					"patching_rect" : [ 46.0, 376.0, 320.0, 240.0 ],
					"outlettype" : [ "", "" ],
					"depthbuffer" : 0,
					"numinlets" : 1,
					"id" : "obj-38"
				}

			}
 ],
		"lines" : [ 			{
				"patchline" : 				{
					"source" : [ "obj-19", 0 ],
					"destination" : [ "obj-23", 1 ],
					"hidden" : 0,
					"midpoints" : [  ]
				}

			}
, 			{
				"patchline" : 				{
					"source" : [ "obj-22", 0 ],
					"destination" : [ "obj-23", 0 ],
					"hidden" : 0,
					"midpoints" : [  ]
				}

			}
, 			{
				"patchline" : 				{
					"source" : [ "obj-23", 0 ],
					"destination" : [ "obj-25", 0 ],
					"hidden" : 0,
					"midpoints" : [ 85.5, 84.0, 56.5, 84.0 ]
				}

			}
, 			{
				"patchline" : 				{
					"source" : [ "obj-36", 5 ],
					"destination" : [ "obj-8", 0 ],
					"hidden" : 0,
					"midpoints" : [  ]
				}

			}
, 			{
				"patchline" : 				{
					"source" : [ "obj-34", 0 ],
					"destination" : [ "obj-25", 0 ],
					"hidden" : 0,
					"midpoints" : [  ]
				}

			}
, 			{
				"patchline" : 				{
					"source" : [ "obj-35", 0 ],
					"destination" : [ "obj-25", 0 ],
					"hidden" : 0,
					"midpoints" : [  ]
				}

			}
, 			{
				"patchline" : 				{
					"source" : [ "obj-33", 0 ],
					"destination" : [ "obj-25", 0 ],
					"hidden" : 0,
					"midpoints" : [  ]
				}

			}
, 			{
				"patchline" : 				{
					"source" : [ "obj-32", 0 ],
					"destination" : [ "obj-25", 0 ],
					"hidden" : 0,
					"midpoints" : [  ]
				}

			}
, 			{
				"patchline" : 				{
					"source" : [ "obj-31", 0 ],
					"destination" : [ "obj-25", 0 ],
					"hidden" : 0,
					"midpoints" : [  ]
				}

			}
, 			{
				"patchline" : 				{
					"source" : [ "obj-18", 0 ],
					"destination" : [ "obj-25", 0 ],
					"hidden" : 0,
					"midpoints" : [ 56.5, 57.0, 56.5, 57.0 ]
				}

			}
, 			{
				"patchline" : 				{
					"source" : [ "obj-24", 0 ],
					"destination" : [ "obj-25", 0 ],
					"hidden" : 0,
					"midpoints" : [ 348.5, 84.0, 56.5, 84.0 ]
				}

			}
, 			{
				"patchline" : 				{
					"source" : [ "obj-21", 0 ],
					"destination" : [ "obj-25", 0 ],
					"hidden" : 0,
					"midpoints" : [ 219.5, 84.0, 56.5, 84.0 ]
				}

			}
, 			{
				"patchline" : 				{
					"source" : [ "obj-25", 0 ],
					"destination" : [ "obj-38", 0 ],
					"hidden" : 0,
					"midpoints" : [  ]
				}

			}
, 			{
				"patchline" : 				{
					"source" : [ "obj-20", 0 ],
					"destination" : [ "obj-21", 0 ],
					"hidden" : 0,
					"midpoints" : [  ]
				}

			}
, 			{
				"patchline" : 				{
					"source" : [ "obj-9", 0 ],
					"destination" : [ "obj-34", 0 ],
					"hidden" : 0,
					"midpoints" : [ 184.5, 135.0, 231.5, 135.0 ]
				}

			}
, 			{
				"patchline" : 				{
					"source" : [ "obj-9", 0 ],
					"destination" : [ "obj-35", 0 ],
					"hidden" : 0,
					"midpoints" : [ 184.5, 167.0, 231.5, 167.0 ]
				}

			}
, 			{
				"patchline" : 				{
					"source" : [ "obj-9", 0 ],
					"destination" : [ "obj-33", 0 ],
					"hidden" : 0,
					"midpoints" : [ 184.5, 202.0, 231.5, 202.0 ]
				}

			}
, 			{
				"patchline" : 				{
					"source" : [ "obj-9", 0 ],
					"destination" : [ "obj-32", 0 ],
					"hidden" : 0,
					"midpoints" : [ 184.5, 237.0, 231.5, 237.0 ]
				}

			}
, 			{
				"patchline" : 				{
					"source" : [ "obj-9", 0 ],
					"destination" : [ "obj-31", 0 ],
					"hidden" : 0,
					"midpoints" : [ 184.5, 270.0, 231.5, 270.0 ]
				}

			}
, 			{
				"patchline" : 				{
					"source" : [ "obj-25", 1 ],
					"destination" : [ "obj-36", 0 ],
					"hidden" : 0,
					"midpoints" : [ 243.5, 365.0, 384.5, 365.0 ]
				}

			}
, 			{
				"patchline" : 				{
					"source" : [ "obj-36", 0 ],
					"destination" : [ "obj-6", 0 ],
					"hidden" : 0,
					"midpoints" : [  ]
				}

			}
, 			{
				"patchline" : 				{
					"source" : [ "obj-6", 0 ],
					"destination" : [ "obj-11", 0 ],
					"hidden" : 0,
					"midpoints" : [  ]
				}

			}
, 			{
				"patchline" : 				{
					"source" : [ "obj-11", 0 ],
					"destination" : [ "obj-1", 0 ],
					"hidden" : 0,
					"midpoints" : [  ]
				}

			}
, 			{
				"patchline" : 				{
					"source" : [ "obj-5", 0 ],
					"destination" : [ "obj-11", 1 ],
					"hidden" : 0,
					"midpoints" : [ 474.5, 600.0, 463.5, 600.0 ]
				}

			}
, 			{
				"patchline" : 				{
					"source" : [ "obj-36", 1 ],
					"destination" : [ "obj-5", 0 ],
					"hidden" : 0,
					"midpoints" : [ 474.166656, 519.0, 474.5, 519.0 ]
				}

			}
, 			{
				"patchline" : 				{
					"source" : [ "obj-36", 2 ],
					"destination" : [ "obj-2", 0 ],
					"hidden" : 0,
					"midpoints" : [ 563.833313, 501.0, 563.5, 501.0 ]
				}

			}
, 			{
				"patchline" : 				{
					"source" : [ "obj-36", 3 ],
					"destination" : [ "obj-4", 0 ],
					"hidden" : 0,
					"midpoints" : [ 653.5, 459.0, 653.5, 459.0 ]
				}

			}
, 			{
				"patchline" : 				{
					"source" : [ "obj-36", 4 ],
					"destination" : [ "obj-3", 0 ],
					"hidden" : 0,
					"midpoints" : [ 743.166687, 429.0, 743.5, 429.0 ]
				}

			}
 ]
	}

}
