{
	"patcher" : 	{
		"fileversion" : 1,
		"rect" : [ 447.0, 44.0, 782.0, 727.0 ],
		"bglocked" : 0,
		"defrect" : [ 447.0, 44.0, 782.0, 727.0 ],
		"openrect" : [ 0.0, 0.0, 0.0, 0.0 ],
		"openinpresentation" : 0,
		"default_fontsize" : 12.0,
		"default_fontface" : 0,
		"default_fontname" : "Arial",
		"gridonopen" : 0,
		"gridsize" : [ 15.0, 15.0 ],
		"gridsnaponopen" : 0,
		"toolbarvisible" : 1,
		"boxanimatetime" : 200,
		"imprint" : 0,
		"boxes" : [ 			{
				"box" : 				{
					"maxclass" : "message",
					"text" : "read colorbars.pict",
					"fontsize" : 14.0,
					"patching_rect" : [ 376.0, 39.0, 142.0, 21.0 ],
					"id" : "obj-1",
					"numinlets" : 2,
					"numoutlets" : 1,
					"fontname" : "Arial",
					"outlettype" : [ "" ]
				}

			}
, 			{
				"box" : 				{
					"maxclass" : "flonum",
					"maximum" : 1.0,
					"fontsize" : 14.0,
					"triscale" : 0.9,
					"patching_rect" : [ 633.0, 451.0, 53.0, 23.0 ],
					"id" : "obj-2",
					"numinlets" : 1,
					"numoutlets" : 2,
					"fontname" : "Arial",
					"outlettype" : [ "float", "bang" ],
					"htextcolor" : [ 0.870588, 0.870588, 0.870588, 1.0 ],
					"minimum" : 0.0,
					"bgcolor" : [ 0.866667, 0.866667, 0.866667, 1.0 ]
				}

			}
, 			{
				"box" : 				{
					"maxclass" : "newobj",
					"text" : "jit.op @op *",
					"fontsize" : 14.0,
					"patching_rect" : [ 537.0, 478.0, 105.0, 23.0 ],
					"id" : "obj-3",
					"numinlets" : 2,
					"numoutlets" : 2,
					"fontname" : "Arial",
					"outlettype" : [ "jit_matrix", "" ]
				}

			}
, 			{
				"box" : 				{
					"maxclass" : "jit.pwindow",
					"patching_rect" : [ 32.0, 552.0, 160.0, 120.0 ],
					"id" : "obj-4",
					"numinlets" : 1,
					"depthbuffer" : 0,
					"numoutlets" : 2,
					"outlettype" : [ "", "" ]
				}

			}
, 			{
				"box" : 				{
					"maxclass" : "flonum",
					"maximum" : 1.0,
					"fontsize" : 14.0,
					"triscale" : 0.9,
					"patching_rect" : [ 463.0, 451.0, 53.0, 23.0 ],
					"id" : "obj-5",
					"numinlets" : 1,
					"numoutlets" : 2,
					"fontname" : "Arial",
					"outlettype" : [ "float", "bang" ],
					"htextcolor" : [ 0.870588, 0.870588, 0.870588, 1.0 ],
					"minimum" : 0.0,
					"bgcolor" : [ 0.866667, 0.866667, 0.866667, 1.0 ]
				}

			}
, 			{
				"box" : 				{
					"maxclass" : "newobj",
					"text" : "jit.op @op *",
					"fontsize" : 14.0,
					"patching_rect" : [ 367.0, 479.0, 105.0, 23.0 ],
					"id" : "obj-6",
					"numinlets" : 2,
					"numoutlets" : 2,
					"fontname" : "Arial",
					"outlettype" : [ "jit_matrix", "" ]
				}

			}
, 			{
				"box" : 				{
					"maxclass" : "flonum",
					"maximum" : 1.0,
					"fontsize" : 14.0,
					"triscale" : 0.9,
					"patching_rect" : [ 292.0, 451.0, 53.0, 23.0 ],
					"id" : "obj-7",
					"numinlets" : 1,
					"numoutlets" : 2,
					"fontname" : "Arial",
					"outlettype" : [ "float", "bang" ],
					"htextcolor" : [ 0.870588, 0.870588, 0.870588, 1.0 ],
					"minimum" : 0.0,
					"bgcolor" : [ 0.866667, 0.866667, 0.866667, 1.0 ]
				}

			}
, 			{
				"box" : 				{
					"maxclass" : "newobj",
					"text" : "jit.op @op *",
					"fontsize" : 14.0,
					"patching_rect" : [ 196.0, 478.0, 105.0, 23.0 ],
					"id" : "obj-8",
					"numinlets" : 2,
					"numoutlets" : 2,
					"fontname" : "Arial",
					"outlettype" : [ "jit_matrix", "" ]
				}

			}
, 			{
				"box" : 				{
					"maxclass" : "flonum",
					"maximum" : 1.0,
					"fontsize" : 14.0,
					"triscale" : 0.9,
					"patching_rect" : [ 127.0, 451.0, 53.0, 23.0 ],
					"id" : "obj-9",
					"numinlets" : 1,
					"numoutlets" : 2,
					"fontname" : "Arial",
					"outlettype" : [ "float", "bang" ],
					"htextcolor" : [ 0.870588, 0.870588, 0.870588, 1.0 ],
					"minimum" : 0.0,
					"bgcolor" : [ 0.866667, 0.866667, 0.866667, 1.0 ]
				}

			}
, 			{
				"box" : 				{
					"maxclass" : "newobj",
					"text" : "jit.op @op *",
					"fontsize" : 14.0,
					"patching_rect" : [ 32.0, 477.0, 105.0, 23.0 ],
					"id" : "obj-10",
					"numinlets" : 2,
					"numoutlets" : 2,
					"fontname" : "Arial",
					"outlettype" : [ "jit_matrix", "" ]
				}

			}
, 			{
				"box" : 				{
					"maxclass" : "newobj",
					"text" : "jit.pack 4",
					"fontsize" : 14.0,
					"patching_rect" : [ 32.0, 521.0, 113.0, 23.0 ],
					"id" : "obj-11",
					"numinlets" : 4,
					"numoutlets" : 2,
					"fontname" : "Arial",
					"outlettype" : [ "jit_matrix", "" ]
				}

			}
, 			{
				"box" : 				{
					"maxclass" : "comment",
					"text" : "blue",
					"fontsize" : 14.0,
					"patching_rect" : [ 595.0, 451.0, 36.0, 23.0 ],
					"id" : "obj-12",
					"numinlets" : 1,
					"numoutlets" : 0,
					"fontname" : "Arial"
				}

			}
, 			{
				"box" : 				{
					"maxclass" : "comment",
					"text" : "green",
					"fontsize" : 14.0,
					"patching_rect" : [ 413.0, 451.0, 49.0, 23.0 ],
					"id" : "obj-13",
					"numinlets" : 1,
					"numoutlets" : 0,
					"fontname" : "Arial"
				}

			}
, 			{
				"box" : 				{
					"maxclass" : "comment",
					"text" : "red",
					"fontsize" : 14.0,
					"patching_rect" : [ 257.0, 451.0, 33.0, 23.0 ],
					"id" : "obj-14",
					"numinlets" : 1,
					"numoutlets" : 0,
					"fontname" : "Arial"
				}

			}
, 			{
				"box" : 				{
					"maxclass" : "jit.pwindow",
					"patching_rect" : [ 537.0, 323.0, 160.0, 120.0 ],
					"id" : "obj-15",
					"numinlets" : 1,
					"depthbuffer" : 0,
					"numoutlets" : 2,
					"outlettype" : [ "", "" ]
				}

			}
, 			{
				"box" : 				{
					"maxclass" : "jit.pwindow",
					"patching_rect" : [ 367.0, 323.0, 160.0, 120.0 ],
					"id" : "obj-16",
					"numinlets" : 1,
					"depthbuffer" : 0,
					"numoutlets" : 2,
					"outlettype" : [ "", "" ]
				}

			}
, 			{
				"box" : 				{
					"maxclass" : "jit.pwindow",
					"patching_rect" : [ 196.0, 323.0, 160.0, 120.0 ],
					"id" : "obj-17",
					"numinlets" : 1,
					"depthbuffer" : 0,
					"numoutlets" : 2,
					"outlettype" : [ "", "" ]
				}

			}
, 			{
				"box" : 				{
					"maxclass" : "jit.pwindow",
					"patching_rect" : [ 32.0, 320.0, 160.0, 120.0 ],
					"id" : "obj-18",
					"numinlets" : 1,
					"depthbuffer" : 0,
					"numoutlets" : 2,
					"outlettype" : [ "", "" ]
				}

			}
, 			{
				"box" : 				{
					"maxclass" : "newobj",
					"text" : "jit.unpack 4",
					"fontsize" : 14.0,
					"patching_rect" : [ 32.0, 250.0, 138.0, 23.0 ],
					"id" : "obj-19",
					"numinlets" : 1,
					"numoutlets" : 5,
					"fontname" : "Arial",
					"outlettype" : [ "jit_matrix", "jit_matrix", "jit_matrix", "jit_matrix", "" ]
				}

			}
, 			{
				"box" : 				{
					"maxclass" : "flonum",
					"fontsize" : 14.0,
					"triscale" : 0.9,
					"patching_rect" : [ 296.0, 12.0, 35.0, 23.0 ],
					"id" : "obj-20",
					"numinlets" : 1,
					"numoutlets" : 2,
					"fontname" : "Arial",
					"outlettype" : [ "float", "bang" ],
					"htextcolor" : [ 0.870588, 0.870588, 0.870588, 1.0 ],
					"bgcolor" : [ 0.866667, 0.866667, 0.866667, 1.0 ]
				}

			}
, 			{
				"box" : 				{
					"maxclass" : "message",
					"text" : "rate $1",
					"fontsize" : 14.0,
					"patching_rect" : [ 296.0, 37.0, 61.0, 21.0 ],
					"id" : "obj-21",
					"numinlets" : 2,
					"numoutlets" : 1,
					"fontname" : "Arial",
					"outlettype" : [ "" ]
				}

			}
, 			{
				"box" : 				{
					"maxclass" : "message",
					"text" : "read",
					"fontsize" : 14.0,
					"patching_rect" : [ 157.0, 39.0, 41.0, 21.0 ],
					"id" : "obj-22",
					"numinlets" : 2,
					"numoutlets" : 1,
					"fontname" : "Arial",
					"outlettype" : [ "" ]
				}

			}
, 			{
				"box" : 				{
					"maxclass" : "message",
					"text" : "stop",
					"fontsize" : 14.0,
					"patching_rect" : [ 249.0, 39.0, 41.0, 21.0 ],
					"id" : "obj-23",
					"numinlets" : 2,
					"numoutlets" : 1,
					"fontname" : "Arial",
					"outlettype" : [ "" ]
				}

			}
, 			{
				"box" : 				{
					"maxclass" : "message",
					"text" : "start",
					"fontsize" : 14.0,
					"patching_rect" : [ 203.0, 39.0, 43.0, 21.0 ],
					"id" : "obj-24",
					"numinlets" : 2,
					"numoutlets" : 1,
					"fontname" : "Arial",
					"outlettype" : [ "" ]
				}

			}
, 			{
				"box" : 				{
					"maxclass" : "flonum",
					"fontsize" : 14.0,
					"triscale" : 0.9,
					"patching_rect" : [ 87.0, 12.0, 45.0, 23.0 ],
					"id" : "obj-25",
					"numinlets" : 1,
					"numoutlets" : 2,
					"fontname" : "Arial",
					"outlettype" : [ "float", "bang" ],
					"htextcolor" : [ 0.870588, 0.870588, 0.870588, 1.0 ],
					"minimum" : 0.5,
					"bgcolor" : [ 0.866667, 0.866667, 0.866667, 1.0 ]
				}

			}
, 			{
				"box" : 				{
					"maxclass" : "toggle",
					"patching_rect" : [ 32.0, 12.0, 20.0, 20.0 ],
					"id" : "obj-26",
					"numinlets" : 1,
					"numoutlets" : 1,
					"outlettype" : [ "int" ]
				}

			}
, 			{
				"box" : 				{
					"maxclass" : "newobj",
					"text" : "qmetro 33",
					"fontsize" : 14.0,
					"patching_rect" : [ 32.0, 39.0, 74.0, 23.0 ],
					"id" : "obj-27",
					"numinlets" : 2,
					"numoutlets" : 1,
					"fontname" : "Arial",
					"outlettype" : [ "bang" ]
				}

			}
, 			{
				"box" : 				{
					"maxclass" : "newobj",
					"text" : "jit.qt.movie 320 240",
					"fontsize" : 14.0,
					"patching_rect" : [ 32.0, 89.0, 149.0, 23.0 ],
					"id" : "obj-28",
					"numinlets" : 1,
					"numoutlets" : 2,
					"fontname" : "Arial",
					"outlettype" : [ "jit_matrix", "" ]
				}

			}
, 			{
				"box" : 				{
					"maxclass" : "jit.pwindow",
					"patching_rect" : [ 32.0, 119.0, 160.0, 120.0 ],
					"id" : "obj-29",
					"numinlets" : 1,
					"depthbuffer" : 0,
					"numoutlets" : 2,
					"outlettype" : [ "", "" ]
				}

			}
, 			{
				"box" : 				{
					"maxclass" : "comment",
					"text" : "alpha",
					"fontsize" : 14.0,
					"patching_rect" : [ 80.0, 451.0, 46.0, 23.0 ],
					"id" : "obj-30",
					"numinlets" : 1,
					"numoutlets" : 0,
					"fontname" : "Arial"
				}

			}
, 			{
				"box" : 				{
					"maxclass" : "comment",
					"text" : "In Jitter, video/image data typically has four planes: alpha, red, green, blue. This single four plane matrix may be split into four single plane matrices, processed and recombined.",
					"linecount" : 5,
					"fontsize" : 14.0,
					"patching_rect" : [ 217.0, 133.0, 272.0, 87.0 ],
					"id" : "obj-31",
					"numinlets" : 1,
					"numoutlets" : 0,
					"fontname" : "Arial"
				}

			}
 ],
		"lines" : [ 			{
				"patchline" : 				{
					"source" : [ "obj-26", 0 ],
					"destination" : [ "obj-27", 0 ],
					"hidden" : 0,
					"midpoints" : [  ]
				}

			}
, 			{
				"patchline" : 				{
					"source" : [ "obj-27", 0 ],
					"destination" : [ "obj-28", 0 ],
					"hidden" : 0,
					"midpoints" : [ 41.5, 72.0, 41.5, 72.0 ]
				}

			}
, 			{
				"patchline" : 				{
					"source" : [ "obj-25", 0 ],
					"destination" : [ "obj-27", 1 ],
					"hidden" : 0,
					"midpoints" : [  ]
				}

			}
, 			{
				"patchline" : 				{
					"source" : [ "obj-2", 0 ],
					"destination" : [ "obj-3", 1 ],
					"hidden" : 0,
					"midpoints" : [  ]
				}

			}
, 			{
				"patchline" : 				{
					"source" : [ "obj-15", 0 ],
					"destination" : [ "obj-3", 0 ],
					"hidden" : 0,
					"color" : [ 0.4, 0.4, 0.8, 1.0 ],
					"midpoints" : [  ]
				}

			}
, 			{
				"patchline" : 				{
					"source" : [ "obj-19", 3 ],
					"destination" : [ "obj-15", 0 ],
					"hidden" : 0,
					"color" : [ 0.0, 0.0, 1.0, 1.0 ],
					"midpoints" : [ 130.75, 283.0, 546.5, 283.0 ]
				}

			}
, 			{
				"patchline" : 				{
					"source" : [ "obj-5", 0 ],
					"destination" : [ "obj-6", 1 ],
					"hidden" : 0,
					"midpoints" : [  ]
				}

			}
, 			{
				"patchline" : 				{
					"source" : [ "obj-16", 0 ],
					"destination" : [ "obj-6", 0 ],
					"hidden" : 0,
					"midpoints" : [  ]
				}

			}
, 			{
				"patchline" : 				{
					"source" : [ "obj-19", 2 ],
					"destination" : [ "obj-16", 0 ],
					"hidden" : 0,
					"color" : [ 0.0, 1.0, 0.0, 1.0 ],
					"midpoints" : [ 101.0, 291.0, 376.5, 291.0 ]
				}

			}
, 			{
				"patchline" : 				{
					"source" : [ "obj-20", 0 ],
					"destination" : [ "obj-21", 0 ],
					"hidden" : 0,
					"midpoints" : [  ]
				}

			}
, 			{
				"patchline" : 				{
					"source" : [ "obj-7", 0 ],
					"destination" : [ "obj-8", 1 ],
					"hidden" : 0,
					"midpoints" : [  ]
				}

			}
, 			{
				"patchline" : 				{
					"source" : [ "obj-17", 0 ],
					"destination" : [ "obj-8", 0 ],
					"hidden" : 0,
					"color" : [ 1.0, 0.360784, 0.682353, 1.0 ],
					"midpoints" : [  ]
				}

			}
, 			{
				"patchline" : 				{
					"source" : [ "obj-19", 1 ],
					"destination" : [ "obj-17", 0 ],
					"hidden" : 0,
					"color" : [ 1.0, 0.0, 0.0, 1.0 ],
					"midpoints" : [ 71.25, 301.0, 205.5, 301.0 ]
				}

			}
, 			{
				"patchline" : 				{
					"source" : [ "obj-3", 0 ],
					"destination" : [ "obj-11", 3 ],
					"hidden" : 0,
					"color" : [ 0.0, 0.0, 1.0, 1.0 ],
					"midpoints" : [ 546.5, 515.0, 135.5, 515.0 ]
				}

			}
, 			{
				"patchline" : 				{
					"source" : [ "obj-9", 0 ],
					"destination" : [ "obj-10", 1 ],
					"hidden" : 0,
					"midpoints" : [  ]
				}

			}
, 			{
				"patchline" : 				{
					"source" : [ "obj-6", 0 ],
					"destination" : [ "obj-11", 2 ],
					"hidden" : 0,
					"color" : [ 0.0, 1.0, 0.0, 1.0 ],
					"midpoints" : [ 376.5, 509.0, 104.166664, 509.0 ]
				}

			}
, 			{
				"patchline" : 				{
					"source" : [ "obj-8", 0 ],
					"destination" : [ "obj-11", 1 ],
					"hidden" : 0,
					"color" : [ 1.0, 0.0, 0.0, 1.0 ],
					"midpoints" : [ 205.5, 503.0, 72.833336, 503.0 ]
				}

			}
, 			{
				"patchline" : 				{
					"source" : [ "obj-11", 0 ],
					"destination" : [ "obj-4", 0 ],
					"hidden" : 0,
					"midpoints" : [  ]
				}

			}
, 			{
				"patchline" : 				{
					"source" : [ "obj-10", 0 ],
					"destination" : [ "obj-11", 0 ],
					"hidden" : 0,
					"color" : [ 0.6667, 0.6667, 0.6667, 1.0 ],
					"midpoints" : [  ]
				}

			}
, 			{
				"patchline" : 				{
					"source" : [ "obj-18", 0 ],
					"destination" : [ "obj-10", 0 ],
					"hidden" : 0,
					"color" : [ 0.6667, 0.6667, 0.6667, 1.0 ],
					"midpoints" : [  ]
				}

			}
, 			{
				"patchline" : 				{
					"source" : [ "obj-19", 0 ],
					"destination" : [ "obj-18", 0 ],
					"hidden" : 0,
					"color" : [ 0.6667, 0.6667, 0.6667, 1.0 ],
					"midpoints" : [  ]
				}

			}
, 			{
				"patchline" : 				{
					"source" : [ "obj-29", 0 ],
					"destination" : [ "obj-19", 0 ],
					"hidden" : 0,
					"midpoints" : [  ]
				}

			}
, 			{
				"patchline" : 				{
					"source" : [ "obj-28", 0 ],
					"destination" : [ "obj-29", 0 ],
					"hidden" : 0,
					"midpoints" : [  ]
				}

			}
, 			{
				"patchline" : 				{
					"source" : [ "obj-21", 0 ],
					"destination" : [ "obj-28", 0 ],
					"hidden" : 0,
					"midpoints" : [ 305.5, 71.0, 41.5, 71.0 ]
				}

			}
, 			{
				"patchline" : 				{
					"source" : [ "obj-22", 0 ],
					"destination" : [ "obj-28", 0 ],
					"hidden" : 0,
					"midpoints" : [ 166.5, 71.0, 41.5, 71.0 ]
				}

			}
, 			{
				"patchline" : 				{
					"source" : [ "obj-23", 0 ],
					"destination" : [ "obj-28", 0 ],
					"hidden" : 0,
					"midpoints" : [ 258.5, 71.0, 41.5, 71.0 ]
				}

			}
, 			{
				"patchline" : 				{
					"source" : [ "obj-24", 0 ],
					"destination" : [ "obj-28", 0 ],
					"hidden" : 0,
					"midpoints" : [ 212.5, 71.0, 41.5, 71.0 ]
				}

			}
, 			{
				"patchline" : 				{
					"source" : [ "obj-1", 0 ],
					"destination" : [ "obj-28", 0 ],
					"hidden" : 0,
					"midpoints" : [ 385.5, 80.0, 41.5, 80.0 ]
				}

			}
 ]
	}

}
