{
	"patcher" : 	{
		"fileversion" : 1,
		"rect" : [ 562.0, 116.0, 640.0, 480.0 ],
		"bglocked" : 0,
		"defrect" : [ 562.0, 116.0, 640.0, 480.0 ],
		"openrect" : [ 0.0, 0.0, 0.0, 0.0 ],
		"openinpresentation" : 0,
		"default_fontsize" : 14.0,
		"default_fontface" : 0,
		"default_fontname" : "Arial",
		"gridonopen" : 0,
		"gridsize" : [ 15.0, 15.0 ],
		"gridsnaponopen" : 0,
		"toolbarvisible" : 1,
		"boxanimatetime" : 200,
		"imprint" : 0,
		"enablehscroll" : 1,
		"enablevscroll" : 1,
		"devicewidth" : 0.0,
		"boxes" : [ 			{
				"box" : 				{
					"maxclass" : "newobj",
					"text" : "jit.matrix",
					"numoutlets" : 2,
					"fontname" : "Arial",
					"patching_rect" : [ 210.0, 227.0, 63.0, 23.0 ],
					"outlettype" : [ "jit_matrix", "" ],
					"fontsize" : 14.0,
					"numinlets" : 1,
					"id" : "obj-17"
				}

			}
, 			{
				"box" : 				{
					"maxclass" : "flonum",
					"numoutlets" : 2,
					"fontname" : "Arial",
					"patching_rect" : [ 55.0, 113.0, 50.0, 23.0 ],
					"outlettype" : [ "float", "bang" ],
					"fontsize" : 14.0,
					"numinlets" : 1,
					"id" : "obj-16"
				}

			}
, 			{
				"box" : 				{
					"maxclass" : "message",
					"text" : "xfade $1",
					"numoutlets" : 1,
					"fontname" : "Arial",
					"patching_rect" : [ 55.0, 140.0, 64.0, 21.0 ],
					"outlettype" : [ "" ],
					"fontsize" : 14.0,
					"numinlets" : 2,
					"id" : "obj-14"
				}

			}
, 			{
				"box" : 				{
					"maxclass" : "newobj",
					"text" : "jit.xfade @xfade 0.6",
					"numoutlets" : 2,
					"fontname" : "Arial",
					"patching_rect" : [ 138.0, 174.0, 134.0, 23.0 ],
					"outlettype" : [ "jit_matrix", "" ],
					"fontsize" : 14.0,
					"numinlets" : 2,
					"id" : "obj-12"
				}

			}
, 			{
				"box" : 				{
					"maxclass" : "newobj",
					"text" : "p esc",
					"numoutlets" : 1,
					"fontname" : "Arial",
					"patching_rect" : [ 210.0, 294.5, 46.0, 23.0 ],
					"outlettype" : [ "bang" ],
					"fontsize" : 14.0,
					"numinlets" : 0,
					"id" : "obj-10",
					"patcher" : 					{
						"fileversion" : 1,
						"rect" : [ 25.0, 69.0, 157.0, 138.0 ],
						"bglocked" : 0,
						"defrect" : [ 25.0, 69.0, 157.0, 138.0 ],
						"openrect" : [ 0.0, 0.0, 0.0, 0.0 ],
						"openinpresentation" : 0,
						"default_fontsize" : 12.0,
						"default_fontface" : 0,
						"default_fontname" : "Arial",
						"gridonopen" : 0,
						"gridsize" : [ 15.0, 15.0 ],
						"gridsnaponopen" : 0,
						"toolbarvisible" : 1,
						"boxanimatetime" : 200,
						"imprint" : 0,
						"enablehscroll" : 1,
						"enablevscroll" : 1,
						"devicewidth" : 0.0,
						"boxes" : [ 							{
								"box" : 								{
									"maxclass" : "newobj",
									"text" : "sel 27",
									"numoutlets" : 2,
									"fontname" : "Arial",
									"patching_rect" : [ 16.0, 47.0, 49.0, 23.0 ],
									"outlettype" : [ "bang", "" ],
									"fontsize" : 14.0,
									"numinlets" : 2,
									"id" : "obj-6"
								}

							}
, 							{
								"box" : 								{
									"maxclass" : "newobj",
									"text" : "key",
									"numoutlets" : 4,
									"fontname" : "Arial",
									"patching_rect" : [ 16.0, 21.0, 67.0, 23.0 ],
									"outlettype" : [ "int", "int", "int", "int" ],
									"fontsize" : 14.0,
									"numinlets" : 0,
									"id" : "obj-5"
								}

							}
, 							{
								"box" : 								{
									"maxclass" : "outlet",
									"numoutlets" : 0,
									"patching_rect" : [ 16.0, 74.0, 25.0, 25.0 ],
									"numinlets" : 1,
									"id" : "obj-9",
									"comment" : ""
								}

							}
 ],
						"lines" : [ 							{
								"patchline" : 								{
									"source" : [ "obj-6", 0 ],
									"destination" : [ "obj-9", 0 ],
									"hidden" : 0,
									"midpoints" : [  ]
								}

							}
, 							{
								"patchline" : 								{
									"source" : [ "obj-5", 0 ],
									"destination" : [ "obj-6", 0 ],
									"hidden" : 0,
									"midpoints" : [  ]
								}

							}
 ]
					}
,
					"saved_object_attributes" : 					{
						"fontname" : "Arial",
						"default_fontsize" : 12.0,
						"globalpatchername" : "",
						"fontface" : 0,
						"fontsize" : 12.0,
						"default_fontface" : 0,
						"default_fontname" : "Arial"
					}

				}

			}
, 			{
				"box" : 				{
					"maxclass" : "toggle",
					"numoutlets" : 1,
					"patching_rect" : [ 187.0, 294.5, 20.0, 20.0 ],
					"outlettype" : [ "int" ],
					"numinlets" : 1,
					"id" : "obj-9"
				}

			}
, 			{
				"box" : 				{
					"maxclass" : "message",
					"text" : "fullscreen $1",
					"numoutlets" : 1,
					"fontname" : "Arial",
					"patching_rect" : [ 187.0, 318.5, 92.0, 21.0 ],
					"outlettype" : [ "" ],
					"fontsize" : 14.0,
					"numinlets" : 2,
					"id" : "obj-11"
				}

			}
, 			{
				"box" : 				{
					"maxclass" : "newobj",
					"text" : "jit.window video @fsmenubar 0",
					"numoutlets" : 2,
					"fontname" : "Arial",
					"patching_rect" : [ 138.0, 350.0, 204.0, 23.0 ],
					"outlettype" : [ "bang", "" ],
					"fontsize" : 14.0,
					"numinlets" : 1,
					"id" : "obj-8"
				}

			}
, 			{
				"box" : 				{
					"maxclass" : "newobj",
					"text" : "qmetro 33",
					"numoutlets" : 1,
					"fontname" : "Arial",
					"patching_rect" : [ 138.0, 57.0, 74.0, 23.0 ],
					"outlettype" : [ "bang" ],
					"fontsize" : 14.0,
					"numinlets" : 2,
					"id" : "obj-7"
				}

			}
, 			{
				"box" : 				{
					"maxclass" : "toggle",
					"numoutlets" : 1,
					"patching_rect" : [ 138.0, 33.0, 20.0, 20.0 ],
					"outlettype" : [ "int" ],
					"numinlets" : 1,
					"id" : "obj-6"
				}

			}
, 			{
				"box" : 				{
					"maxclass" : "message",
					"text" : "close",
					"numoutlets" : 1,
					"fontname" : "Arial",
					"patching_rect" : [ 265.0, 57.0, 43.0, 21.0 ],
					"outlettype" : [ "" ],
					"fontsize" : 14.0,
					"numinlets" : 2,
					"id" : "obj-4"
				}

			}
, 			{
				"box" : 				{
					"maxclass" : "message",
					"text" : "open",
					"numoutlets" : 1,
					"fontname" : "Arial",
					"patching_rect" : [ 218.0, 57.0, 42.0, 21.0 ],
					"outlettype" : [ "" ],
					"fontsize" : 14.0,
					"numinlets" : 2,
					"id" : "obj-3"
				}

			}
, 			{
				"box" : 				{
					"maxclass" : "newobj",
					"text" : "jit.qt.grab 320 240",
					"numoutlets" : 2,
					"fontname" : "Arial",
					"patching_rect" : [ 138.0, 94.0, 123.0, 23.0 ],
					"outlettype" : [ "jit_matrix", "" ],
					"fontsize" : 14.0,
					"numinlets" : 1,
					"id" : "obj-1"
				}

			}
 ],
		"lines" : [ 			{
				"patchline" : 				{
					"source" : [ "obj-17", 0 ],
					"destination" : [ "obj-12", 1 ],
					"hidden" : 0,
					"midpoints" : [  ]
				}

			}
, 			{
				"patchline" : 				{
					"source" : [ "obj-12", 0 ],
					"destination" : [ "obj-17", 0 ],
					"hidden" : 0,
					"midpoints" : [  ]
				}

			}
, 			{
				"patchline" : 				{
					"source" : [ "obj-12", 0 ],
					"destination" : [ "obj-8", 0 ],
					"hidden" : 0,
					"midpoints" : [  ]
				}

			}
, 			{
				"patchline" : 				{
					"source" : [ "obj-14", 0 ],
					"destination" : [ "obj-12", 0 ],
					"hidden" : 0,
					"midpoints" : [ 64.5, 167.0, 147.5, 167.0 ]
				}

			}
, 			{
				"patchline" : 				{
					"source" : [ "obj-1", 0 ],
					"destination" : [ "obj-12", 0 ],
					"hidden" : 0,
					"midpoints" : [  ]
				}

			}
, 			{
				"patchline" : 				{
					"source" : [ "obj-16", 0 ],
					"destination" : [ "obj-14", 0 ],
					"hidden" : 0,
					"midpoints" : [  ]
				}

			}
, 			{
				"patchline" : 				{
					"source" : [ "obj-11", 0 ],
					"destination" : [ "obj-8", 0 ],
					"hidden" : 0,
					"midpoints" : [ 196.5, 344.25, 147.5, 344.25 ]
				}

			}
, 			{
				"patchline" : 				{
					"source" : [ "obj-9", 0 ],
					"destination" : [ "obj-11", 0 ],
					"hidden" : 0,
					"midpoints" : [  ]
				}

			}
, 			{
				"patchline" : 				{
					"source" : [ "obj-10", 0 ],
					"destination" : [ "obj-9", 0 ],
					"hidden" : 0,
					"midpoints" : [  ]
				}

			}
, 			{
				"patchline" : 				{
					"source" : [ "obj-7", 0 ],
					"destination" : [ "obj-1", 0 ],
					"hidden" : 0,
					"midpoints" : [  ]
				}

			}
, 			{
				"patchline" : 				{
					"source" : [ "obj-6", 0 ],
					"destination" : [ "obj-7", 0 ],
					"hidden" : 0,
					"midpoints" : [  ]
				}

			}
, 			{
				"patchline" : 				{
					"source" : [ "obj-4", 0 ],
					"destination" : [ "obj-1", 0 ],
					"hidden" : 0,
					"midpoints" : [ 274.5, 86.5, 147.5, 86.5 ]
				}

			}
, 			{
				"patchline" : 				{
					"source" : [ "obj-3", 0 ],
					"destination" : [ "obj-1", 0 ],
					"hidden" : 0,
					"midpoints" : [ 227.5, 86.5, 147.5, 86.5 ]
				}

			}
 ]
	}

}
